<?xml version="1.0" encoding="UTF-8" standalone="no"?>
<svg
   version="1.0"
   width="48"
   height="48"
   viewBox="0 0 36 36"
   preserveAspectRatio="xMidYMid"
   id="svg4"
   sodipodi:docname="logo.svg"
   xmlns:inkscape="http://www.inkscape.org/namespaces/inkscape"
   xmlns:sodipodi="http://sodipodi.sourceforge.net/DTD/sodipodi-0.dtd"
   xmlns:xlink="http://www.w3.org/1999/xlink"
   xmlns="http://www.w3.org/2000/svg"
   xmlns:svg="http://www.w3.org/2000/svg">
  <defs
     id="defs4">
    <linearGradient
       id="linearGradient4"
       inkscape:collect="always">
      <stop
         style="stop-color:#f50693;stop-opacity:0.55485892;"
         offset="0.44936711"
         id="stop5" />
      <stop
         style="stop-color:#12d3d9;stop-opacity:1;"
         offset="1"
         id="stop6" />
    </linearGradient>
    <radialGradient
       inkscape:collect="always"
       xlink:href="#linearGradient4"
       id="radialGradient6"
       cx="1999.9543"
       cy="1531.0931"
       fx="1999.9543"
       fy="1531.0931"
       r="739.02875"
       gradientTransform="matrix(1,0,0,1.2393934,0,-366.53366)"
       gradientUnits="userSpaceOnUse" />
    <radialGradient
       inkscape:collect="always"
       xlink:href="#linearGradient4"
       id="radialGradient2"
       gradientUnits="userSpaceOnUse"
       gradientTransform="matrix(1,0,0,1.2393934,0,-366.53366)"
       cx="1999.9543"
       cy="1531.0931"
       fx="1999.9543"
       fy="1531.0931"
       r="739.02875" />
    <radialGradient
       inkscape:collect="always"
       xlink:href="#linearGradient4"
       id="radialGradient3"
       gradientUnits="userSpaceOnUse"
       gradientTransform="matrix(1,0,0,1.2393934,0,-366.53366)"
       cx="1999.9543"
       cy="1531.0931"
       fx="1999.9543"
       fy="1531.0931"
       r="739.02875" />
    <radialGradient
       inkscape:collect="always"
       xlink:href="#linearGradient4"
       id="radialGradient4"
       gradientUnits="userSpaceOnUse"
       gradientTransform="matrix(1,0,0,1.2393934,0,-366.53366)"
       cx="1999.9543"
       cy="1531.0931"
       fx="1999.9543"
       fy="1531.0931"
       r="739.02875" />
    <radialGradient
       inkscape:collect="always"
       xlink:href="#linearGradient4"
       id="radialGradient5"
       gradientUnits="userSpaceOnUse"
       gradientTransform="matrix(1,0,0,1.2393934,0,-366.53366)"
       cx="1999.9543"
       cy="1531.0931"
       fx="1999.9543"
       fy="1531.0931"
       r="739.02875" />
  </defs>
  <sodipodi:namedview
     id="namedview4"
     pagecolor="#ffffff"
     bordercolor="#000000"
     borderopacity="0.25"
     inkscape:showpageshadow="2"
     inkscape:pageopacity="0.0"
     inkscape:pagecheckerboard="0"
     inkscape:deskcolor="#d1d1d1"
     inkscape:document-units="pt"
     inkscape:export-bgcolor="#ffffff00" />
  <g
     transform="matrix(0.02385091,0,0,-0.01947745,-29.756007,47.881444)"
     fill="#000000"
     stroke="none"
     id="g4"
     inkscape:export-filename="g4.svg"
     inkscape:export-xdpi="78.607132"
     inkscape:export-ydpi="78.607132"
     style="fill:url(#radialGradient6);fill-opacity:1">
    <path
       d="m 1930,2444 c -8,-3 -21,-8 -29,-10 -9,-3 0,-14 25,-33 70,-51 104,-101 104,-151 0,-26 -53,-85 -101,-112 -21,-12 -39,-25 -39,-29 0,-14 87,-41 145,-46 39,-3 79,1 115,12 80,25 151,29 175,12 17,-13 18,-18 7,-41 -14,-31 -82,-66 -127,-65 -16,0 -24,3 -17,6 31,12 4,18 -91,19 -72,1 -124,7 -178,22 -84,25 -196,29 -223,9 -21,-16 -35,-74 -36,-150 0,-53 -3,-62 -44,-112 -58,-71 -100,-161 -132,-281 -22,-85 -35,-113 -93,-200 -130,-193 -163,-363 -97,-499 14,-28 26,-67 26,-86 0,-32 23,-79 38,-79 4,0 7,19 7,42 0,43 0,43 35,40 43,-4 100,6 100,17 0,5 -18,11 -40,14 -134,18 -170,178 -81,360 22,45 67,116 100,157 61,75 70,93 111,225 50,158 129,270 227,322 72,38 108,48 253,67 63,8 138,22 165,30 109,34 194,118 195,192 0,70 -82,139 -179,151 -28,3 -51,9 -51,13 0,3 21,13 46,21 l 46,14 -43,46 c -64,68 -135,100 -228,105 -42,2 -83,1 -91,-2 z"
       id="path1"
       style="fill:url(#radialGradient2);fill-opacity:1" />
    <path
       d="m 2480,2086 c 0,-3 7,-31 15,-63 58,-222 -58,-465 -295,-619 -42,-27 -95,-58 -118,-69 -37,-17 -42,-23 -37,-45 18,-81 17,-147 -3,-193 -24,-53 -42,-61 -42,-19 0,83 -64,196 -137,242 -39,25 -168,58 -180,47 -2,-3 21,-18 51,-35 92,-52 135,-127 136,-238 1,-133 -58,-225 -154,-239 -64,-10 -108,1 -194,46 -72,38 -105,46 -129,31 -8,-5 6,-14 37,-25 65,-23 87,-57 105,-158 19,-106 23,-117 45,-129 17,-9 17,-7 7,19 -7,20 -8,37 -1,52 10,21 17,22 130,24 66,1 133,8 151,14 32,13 32,13 18,41 -28,55 -15,51 68,-18 155,-131 220,-158 264,-109 26,28 49,73 57,113 7,30 6,32 -38,43 -26,6 -46,13 -46,15 0,2 34,23 76,45 100,54 177,114 258,202 36,39 66,68 66,65 0,-15 -32,-82 -48,-99 -16,-19 -16,-19 8,-12 53,15 126,64 158,104 46,61 43,71 -24,71 -64,0 -63,-9 -23,115 19,59 22,93 22,220 0,135 -2,159 -27,240 -31,102 -94,229 -143,287 -18,22 -33,37 -33,34 z"
       id="path2"
       style="fill:url(#radialGradient3);fill-opacity:1" />
    <path
       d="m 1680,1071 c -7,-14 -7,-22 1,-26 6,-4 8,-18 5,-31 -5,-17 -2,-26 9,-30 23,-9 45,15 45,50 0,52 -39,76 -60,37 z"
       id="path3"
       style="fill:url(#radialGradient4);fill-opacity:1" />
    <path
       d="m 1360,880 c 0,-34 32,-82 64,-95 35,-15 76,-20 76,-10 0,25 -35,78 -62,95 -35,21 -78,27 -78,10 z"
       id="path4"
       style="fill:url(#radialGradient5);fill-opacity:1" />
  </g>
</svg>
